# xmcd CD database file
#
# Track frame offsets:
#	150
#	22793
#	39645
#	51970
#	79639
#	96604
#
# Disc length: 1450 seconds
#
# Revision: 0
# Processed by: cddbd v1.5.2PL0 Copyright (c) Steve Scherf et al.
# Submitted via: CDex 1.51
#
DISCID=4305a806
DTITLE=Stevie Ray Vaughan - The Essential Stevie Ray Vaughan And Double Trouble, Disc3 (Ltd) (2008)
DYEAR=2008
DGENRE=Blues
TTITLE0=Dirty Pool
TTITLE1=I'm Cryin'
TTITLE2=Honey Bee
TTITLE3=Ain't Gone 'N' Give Up On Love
TTITLE4=You''l Be Mine
TTITLE5=Scratch-N-Sniff
EXTD=YEAR: 2008
EXTT0=
EXTT1=
EXTT2=
EXTT3=
EXTT4=
EXTT5=
PLAYORDER=
